<svg width="34" height="35" viewBox="0 0 34 35" fill="none" xmlns="http://www.w3.org/2000/svg">
<path d="M17 0.941322C7.795 0.941322 0.333328 8.40299 0.333328 17.608C0.333328 26.813 7.795 34.2747 17 34.2747C26.205 34.2747 33.6667 26.813 33.6667 17.608C33.6667 8.40299 26.205 0.941322 17 0.941322ZM28.53 10.9413H23.1717C22.9224 9.06602 22.6083 7.1999 22.23 5.34632C24.8765 6.48621 27.0855 8.44804 28.53 10.9413ZM18.69 4.39466C18.8033 4.98132 19.335 7.79132 19.765 10.9413H14.2317C14.665 7.79132 15.195 4.98132 15.3083 4.39466C15.8667 4.32466 16.4267 4.27466 17 4.27466C17.5733 4.27466 18.1333 4.32466 18.69 4.39466ZM20.3333 17.608C20.3333 18.6047 20.2617 19.7513 20.15 20.9413H13.85C13.7383 19.7513 13.6667 18.6047 13.6667 17.608C13.6667 16.6113 13.7383 15.4647 13.85 14.2747H20.15C20.2617 15.4647 20.3333 16.6113 20.3333 17.608ZM11.77 5.34632C11.3917 7.1999 11.0776 9.06602 10.8283 10.9413H5.47C6.91451 8.44804 9.12354 6.48621 11.77 5.34632ZM4.10333 14.2747H10.4733C10.39 15.388 10.3333 16.5147 10.3333 17.608C10.3333 18.7013 10.3883 19.828 10.475 20.9413H4.105C3.82833 19.8747 3.66666 18.7613 3.66666 17.608C3.66666 16.4547 3.83 15.3413 4.105 14.2747H4.10333ZM5.47 24.2747H10.8283C11.1417 26.648 11.5283 28.6913 11.77 29.8697C9.12354 28.7298 6.91451 26.7679 5.47 24.2747ZM15.31 30.8213C14.8955 28.6487 14.5371 26.4657 14.235 24.2747H19.7683C19.4635 26.4654 19.1045 28.6483 18.6917 30.8213C18.1367 30.893 17.575 30.9413 17.0017 30.9413C16.4283 30.9413 15.8683 30.8913 15.3117 30.8213H15.31ZM22.23 29.8713C22.6082 28.0172 22.9222 26.1505 23.1717 24.2747H28.53C27.0855 26.7679 24.8765 28.7298 22.23 29.8697V29.8713ZM29.8967 20.9413H23.5267C23.61 19.828 23.6667 18.7013 23.6667 17.608C23.6667 16.5147 23.6117 15.388 23.525 14.2747H29.8917C30.17 15.3413 30.3333 16.4547 30.3333 17.608C30.3333 18.7613 30.1717 19.8747 29.895 20.9413H29.8967Z" fill="url(#paint0_linear_2875_14587)"/>
<defs>
<linearGradient id="paint0_linear_2875_14587" x1="34.0714" y1="34.2747" x2="0.333328" y2="0.941322" gradientUnits="userSpaceOnUse">
<stop stop-color="#664DFD"/>
<stop offset="1" stop-color="#FD4DEB"/>
</linearGradient>
</defs>
</svg>
