<svg width="16" height="16" viewBox="0 0 16 16" fill="none" xmlns="http://www.w3.org/2000/svg">
<path d="M8 15.2356C8.27997 15.2291 8.54865 15.1239 8.75849 14.9384C8.96834 14.753 9.10584 14.4993 9.14667 14.2222H6.80889C6.85088 14.5068 6.99481 14.7665 7.21391 14.9529C7.43302 15.1393 7.71237 15.2397 8 15.2356Z" fill="#B8BEC7"/>
<path d="M14.6 12.5022L14.4489 12.3689C14.0202 11.9869 13.645 11.5489 13.3333 11.0667C12.993 10.4011 12.789 9.67431 12.7333 8.92888V6.73332C12.7315 6.46664 12.7077 6.20055 12.6622 5.93777C11.9094 5.78303 11.2331 5.37289 10.748 4.77678C10.2629 4.18068 9.99861 3.43523 10 2.66666V2.38666C9.53596 2.1583 9.03741 2.00813 8.52444 1.94221V1.38221C8.52444 1.22485 8.46193 1.07393 8.35066 0.962663C8.23939 0.851391 8.08847 0.788879 7.93111 0.788879C7.77375 0.788879 7.62283 0.851391 7.51156 0.962663C7.40029 1.07393 7.33777 1.22485 7.33777 1.38221V1.96443C6.1892 2.12646 5.13803 2.69854 4.37832 3.57507C3.61861 4.4516 3.20165 5.57339 3.20444 6.73332V8.92888C3.14878 9.67431 2.94479 10.4011 2.60444 11.0667C2.29817 11.5477 1.92897 11.9857 1.50666 12.3689L1.35555 12.5022V13.7555H14.6V12.5022Z" fill="#B8BEC7"/>
<path d="M13.3333 4.8889C14.5606 4.8889 15.5556 3.89398 15.5556 2.66668C15.5556 1.43938 14.5606 0.444458 13.3333 0.444458C12.106 0.444458 11.1111 1.43938 11.1111 2.66668C11.1111 3.89398 12.106 4.8889 13.3333 4.8889Z" fill="#B8BEC7"/>
</svg>
