<svg width="41" height="41" viewBox="0 0 41 41" fill="none" xmlns="http://www.w3.org/2000/svg">
<path d="M40.1921 8.51112L29.9942 0.854874C29.5255 0.503311 28.89 0.307999 28.2234 0.307999H27.588V10.308H40.9213V9.83144C40.9213 9.33925 40.6609 8.86269 40.1921 8.51112ZM24.2546 10.933V0.307999H3.4213C2.03588 0.307999 0.921295 1.14394 0.921295 2.183V38.433C0.921295 39.4721 2.03588 40.308 3.4213 40.308H38.4213C39.8067 40.308 40.9213 39.4721 40.9213 38.433V12.808H26.7546C25.3796 12.808 24.2546 11.9642 24.2546 10.933ZM7.58796 5.933C7.58796 5.58769 7.96088 5.308 8.4213 5.308H16.7546C17.215 5.308 17.588 5.58769 17.588 5.933V7.183C17.588 7.52831 17.215 7.808 16.7546 7.808H8.4213C7.96088 7.808 7.58796 7.52831 7.58796 7.183V5.933ZM7.58796 12.183V10.933C7.58796 10.5877 7.96088 10.308 8.4213 10.308H16.7546C17.215 10.308 17.588 10.5877 17.588 10.933V12.183C17.588 12.5283 17.215 12.808 16.7546 12.808H8.4213C7.96088 12.808 7.58796 12.5283 7.58796 12.183ZM22.588 32.7986V34.683C22.588 35.0283 22.215 35.308 21.7546 35.308H20.088C19.6275 35.308 19.2546 35.0283 19.2546 34.683V32.7853C18.0786 32.74 16.9348 32.4322 15.9869 31.8986C15.5807 31.6697 15.5598 31.2135 15.9275 30.9502L17.1515 30.0744C17.44 29.8682 17.8692 29.8588 18.2067 30.0174C18.6098 30.2064 19.0671 30.308 19.5421 30.308H22.4703C23.1473 30.308 23.6994 29.8455 23.6994 29.2775C23.6994 28.8127 23.3234 28.4033 22.7859 28.283L18.0984 27.2283C16.1619 26.7924 14.8088 25.3986 14.8088 23.8385C14.8088 21.9228 16.7932 20.3666 19.2536 20.3174V18.433C19.2536 18.0877 19.6265 17.808 20.0869 17.808H21.7536C22.214 17.808 22.5869 18.0877 22.5869 18.433V20.3307C23.763 20.376 24.9067 20.683 25.8546 21.2174C26.2609 21.4463 26.2817 21.9025 25.914 22.1658L24.69 23.0416C24.4015 23.2478 23.9723 23.2572 23.6348 23.0986C23.2317 22.9088 22.7744 22.808 22.2994 22.808H19.3713C18.6942 22.808 18.1421 23.2705 18.1421 23.8385C18.1421 24.3033 18.5182 24.7127 19.0557 24.833L23.7432 25.8877C25.6796 26.3236 27.0328 27.7174 27.0328 29.2775C27.0328 31.1939 25.0484 32.7494 22.588 32.7986Z" fill="url(#paint0_linear_2875_14599)"/>
<defs>
<linearGradient id="paint0_linear_2875_14599" x1="41.407" y1="40.308" x2="0.921295" y2="0.307999" gradientUnits="userSpaceOnUse">
<stop stop-color="#664DFD"/>
<stop offset="1" stop-color="#FD4DEB"/>
</linearGradient>
</defs>
</svg>
