<svg width="16" height="16" viewBox="0 0 16 16" fill="none" xmlns="http://www.w3.org/2000/svg">
<path d="M11.7426 10.343C12.7109 9.02166 13.1446 7.38346 12.9569 5.75612C12.7692 4.12878 11.974 2.63231 10.7304 1.5661C9.48672 0.499892 7.88635 -0.0574251 6.24944 0.00564806C4.61252 0.0687212 3.05978 0.747533 1.90187 1.90628C0.743952 3.06502 0.0662508 4.61825 0.00434899 6.25521C-0.0575528 7.89216 0.50091 9.49213 1.56801 10.735C2.63511 11.9779 4.13214 12.772 5.75962 12.9586C7.38709 13.1451 9.02498 12.7102 10.3456 11.741H10.3446C10.3746 11.781 10.4066 11.819 10.4426 11.856L14.2926 15.706C14.4801 15.8936 14.7345 15.9991 14.9997 15.9992C15.265 15.9993 15.5195 15.894 15.7071 15.7065C15.8947 15.519 16.0002 15.2646 16.0003 14.9993C16.0004 14.7341 15.8951 14.4796 15.7076 14.292L11.8576 10.442C11.8218 10.4058 11.7834 10.3724 11.7426 10.342V10.343ZM12.0006 6.49897C12.0006 7.22124 11.8583 7.93644 11.5819 8.60373C11.3055 9.27102 10.9004 9.87734 10.3897 10.3881C9.87897 10.8988 9.27265 11.3039 8.60536 11.5803C7.93807 11.8567 7.22287 11.999 6.5006 11.999C5.77833 11.999 5.06313 11.8567 4.39584 11.5803C3.72855 11.3039 3.12224 10.8988 2.61151 10.3881C2.10079 9.87734 1.69566 9.27102 1.41926 8.60373C1.14286 7.93644 1.0006 7.22124 1.0006 6.49897C1.0006 5.04028 1.58006 3.64133 2.61151 2.60988C3.64296 1.57843 5.04191 0.998971 6.5006 0.998971C7.95929 0.998971 9.35824 1.57843 10.3897 2.60988C11.4211 3.64133 12.0006 5.04028 12.0006 6.49897Z" fill="#B8BEC7"/>
</svg>
