<svg width="19" height="18" viewBox="0 0 19 18" fill="none" xmlns="http://www.w3.org/2000/svg">
<path d="M2.5 8H6.5C7.6 8 8.5 7.1 8.5 6V2C8.5 0.9 7.6 0 6.5 0H2.5C1.4 0 0.5 0.9 0.5 2V6C0.5 7.1 1.4 8 2.5 8ZM2.5 18H6.5C7.6 18 8.5 17.1 8.5 16V12C8.5 10.9 7.6 10 6.5 10H2.5C1.4 10 0.5 10.9 0.5 12V16C0.5 17.1 1.4 18 2.5 18ZM10.5 2V6C10.5 7.1 11.4 8 12.5 8H16.5C17.6 8 18.5 7.1 18.5 6V2C18.5 0.9 17.6 0 16.5 0H12.5C11.4 0 10.5 0.9 10.5 2ZM12.5 18H16.5C17.6 18 18.5 17.1 18.5 16V12C18.5 10.9 17.6 10 16.5 10H12.5C11.4 10 10.5 10.9 10.5 12V16C10.5 17.1 11.4 18 12.5 18Z" fill="#B8BEC7"/>
</svg>
